<svg width="600" height="600" xmlns="http://www.w3.org/2000/svg">
 <g>
  <title>Layer 1</title>
  <g id="svg_19">
   <path fill="#000000" stroke="#ffffff" stroke-width="50" fill-opacity="0" opacity="NaN" d="m220.50132,147.99004l-1,75c0,0 18,21 72,21c54,0 90,-21 90,-21c0,0 2,-75 2,-75" id="svg_2"/>
   <path fill="none" stroke="#ffffff" stroke-width="50" fill-opacity="0" opacity="NaN" d="m373.92972,89.13288c56.42876,24.00006 58.5716,26.85716 58.5716,34.85716c0,8 -3.7142,4.14284 -56.7142,25.14284c-53,21 -55.2858,25.85716 -71.2858,25.85716c-16,0 -10.28568,-1 -71,-24c-60.71432,-23 -66.14284,-21.57142 -66,-31c0.14284,-9.42858 14.99988,-12.71426 59.5716,-30.85722c44.57171,-18.14296 60.42835,-24.28562 75.4284,-24.14278c15.00006,0.14284 14.99965,0.14278 71.4284,24.14284z" id="svg_3"/>
   <path fill="none" stroke="#ffffff" stroke-width="50" fill-opacity="0" opacity="NaN" d="m421.91952,137.55513l0.00587,50.8608l-0.00587,-50.8608z" id="svg_4"/>
   <path fill="none" stroke="#ffffff" stroke-width="50" fill-opacity="0" opacity="NaN" d="m413.34822,224.41245l16.71988,0.00295l0.4286,-28.72414c-0.43301,-3.06686 -2.14741,-7.27973 -7.29064,-7.27973c-5.14322,0 -8.99183,1.92084 -9.42484,7.66272c-0.43301,5.74188 -0.43301,17.61452 -0.43301,28.3382l0.00001,0z" id="svg_5"/>
   <path fill="none" stroke="#ffffff" stroke-width="50" fill-opacity="0" opacity="NaN" d="m219.33625,228.97248c-2.98945,9.2916 -17.98492,19.43816 -16.84208,60.009c1.14284,40.57083 22.85681,68.57042 34.28521,89.14155c11.4284,20.57113 20.57113,37.14231 21.14255,51.99924l90.85581,0c2.28568,-21.71397 15.99977,-49.14214 24.57107,-61.14196c8.5713,-11.99982 31.42811,-47.9993 31.99953,-78.28457c0.57142,-30.28527 -17.71403,-53.7135 -25.14249,-62.85622" id="svg_6"/>
   <path fill="none" stroke="#ffffff" stroke-width="50" fill-opacity="0" opacity="NaN" d="m241.06488,456.83607l124.57576,-1.13844l-124.57576,1.13844z" id="svg_7"/>
   <path fill="none" stroke="#ffffff" stroke-width="50" fill-opacity="0" opacity="NaN" d="m245.92199,495.54986l114.43298,-1.13844l-114.43298,1.13844z" id="svg_8"/>
   <path fill="none" stroke="#ffffff" stroke-width="50" fill-opacity="0" opacity="NaN" d="m302.41744,534.98991c12.66699,-0.42112 18.94237,-6.18977 20.31101,-13.60293l-40.54675,-0.71521c1.48846,9.22466 7.56876,14.73925 20.23574,14.31814z" id="svg_9"/>
   <path fill="none" stroke="#ffffff" stroke-width="50" fill-opacity="0" opacity="NaN" d="m234.65922,297.09532c0,-27.36842 16.68421,-48.94737 23,-59.47369" id="svg_10"/>
   <path fill="none" stroke="#ffffff" stroke-width="50" fill-opacity="0" opacity="NaN" d="m311.0242,82.00198c-40.92604,17.22893 -67.09365,34.53607 -68.86666,39.50052c-1.77302,4.96445 60.27637,32.06095 66.30463,28.51492c6.02826,-3.54603 43.1948,-22.81762 70.70101,-36.04194" id="svg_11"/>
   <path fill="none" stroke="#ffffff" stroke-width="50" fill-opacity="0" opacity="NaN" d="m343.63901,97.72753c-15.19285,8.4616 -63.89351,33.1413 -69.21152,38.4658" id="svg_12"/>
   <path fill="none" stroke="#ffffff" stroke-width="50" fill-opacity="0" opacity="NaN" d="m297.46945,122.00374" id="svg_13"/>
  </g>
  <g id="svg_47">
   <path fill="#000000" stroke="#084887" stroke-width="20" fill-opacity="0" opacity="NaN" d="m220.50132,146.49002l-1,75c0,0 18,21 72,21c54,0 90,-21 90,-21c0,0 2,-75 2,-75" id="svg_27"/>
   <path fill="none" stroke="#084887" stroke-width="20" fill-opacity="0" opacity="NaN" d="m373.92972,87.63286c56.42876,24.00006 58.5716,26.85716 58.5716,34.85716c0,8 -3.7142,4.14284 -56.7142,25.14284c-53,21 -55.2858,25.85716 -71.2858,25.85716c-16,0 -10.28568,-1 -71,-24c-60.71432,-23 -66.14284,-21.57142 -66,-31c0.14284,-9.42858 14.99988,-12.71426 59.5716,-30.85722c44.57171,-18.14296 60.42835,-24.28562 75.4284,-24.14278c15.00006,0.14284 14.99965,0.14278 71.4284,24.14284z" id="svg_29"/>
   <path fill="none" stroke="#084887" stroke-width="20" fill-opacity="0" opacity="NaN" d="m421.91952,136.05511l0.00587,50.8608l-0.00587,-50.8608z" id="svg_31"/>
   <path fill="none" stroke="#084887" stroke-width="20" fill-opacity="0" opacity="NaN" d="m413.34822,222.91243l16.71988,0.00295l0.4286,-28.72414c-0.43301,-3.06686 -2.14741,-7.27973 -7.29064,-7.27973c-5.14322,0 -8.99183,1.92084 -9.42484,7.66272c-0.43301,5.74188 -0.43301,17.61452 -0.43301,28.3382l0.00001,0z" id="svg_32"/>
   <path fill="none" stroke="#084887" stroke-width="20" fill-opacity="0" opacity="NaN" d="m219.33625,227.47246c-2.98945,9.2916 -17.98492,19.43816 -16.84208,60.009c1.14284,40.57083 22.85681,68.57042 34.28521,89.14155c11.4284,20.57113 20.57113,37.14231 21.14255,51.99924l90.85581,0c2.28568,-21.71397 15.99977,-49.14214 24.57107,-61.14196c8.5713,-11.99982 31.42811,-47.9993 31.99953,-78.28457c0.57142,-30.28527 -17.71403,-53.7135 -25.14249,-62.85622" id="svg_33"/>
   <path fill="none" stroke="#084887" stroke-width="20" fill-opacity="0" opacity="NaN" d="m251.06489,462.33605l104.57576,-1.13844l-104.57576,1.13844z" id="svg_34"/>
   <path fill="none" stroke="#084887" stroke-width="20" fill-opacity="0" opacity="NaN" d="m253.92199,496.04984l99.43298,-1.13844l-99.43298,1.13844z" id="svg_35"/>
   <path fill="none" stroke="#084887" stroke-width="20" fill-opacity="0" opacity="NaN" d="m302.41744,536.50085c12.66699,-0.21556 18.94237,-3.1684 20.31101,-6.96302l-40.54675,-0.3661c1.48846,4.72189 7.56876,7.54468 20.23574,7.32912z" id="svg_37"/>
   <path fill="none" stroke="#084887" stroke-width="20" fill-opacity="0" opacity="NaN" d="m237.65922,285.5953c0,-27.36842 13.68421,-38.94737 20,-49.47369" id="svg_43"/>
   <path fill="none" stroke="#f58a07" stroke-width="20" fill-opacity="0" opacity="NaN" d="m302.0242,85.50196c-40.92604,17.22893 -58.09365,29.53607 -59.86666,34.50052c-1.77302,4.96445 60.27637,32.06095 66.30463,28.51492c6.02826,-3.54603 34.1948,-20.81762 61.70101,-34.04194" id="svg_44"/>
   <path fill="none" stroke="#f58a07" stroke-width="20" fill-opacity="0" opacity="NaN" d="m333.63901,99.22751c-15.19285,8.4616 -53.89351,30.1413 -59.21152,35.4658" id="svg_45"/>
   <path fill="none" stroke="#f58a07" stroke-width="20" fill-opacity="0" opacity="NaN" d="m297.46945,120.50372" id="svg_46"/>
  </g>
 </g>

</svg>