<?xml version="1.0" encoding="UTF-8" standalone="no"?>
<!-- Created with Inkscape (http://www.inkscape.org/) -->

<svg
   version="1.1"
   id="svg1"
   width="880"
   height="880"
   viewBox="0 0 880 880"
   sodipodi:docname="light-bulb-in-hand.svg"
   inkscape:version="1.3.2 (091e20e, 2023-11-25, custom)"
   xmlns:inkscape="http://www.inkscape.org/namespaces/inkscape"
   xmlns:sodipodi="http://sodipodi.sourceforge.net/DTD/sodipodi-0.dtd"
   xmlns="http://www.w3.org/2000/svg"
   xmlns:svg="http://www.w3.org/2000/svg">
  <defs
     id="defs1">
    <clipPath
       clipPathUnits="userSpaceOnUse"
       id="clipPath4">
      <path
         d="M 0,660 H 660 V 0 H 0 Z"
         transform="translate(-339.84961,-263.73241)"
         id="path4" />
    </clipPath>
    <clipPath
       clipPathUnits="userSpaceOnUse"
       id="clipPath6">
      <path
         d="M 0,660 H 660 V 0 H 0 Z"
         transform="translate(-339.84961,-314.00101)"
         id="path6" />
    </clipPath>
    <clipPath
       clipPathUnits="userSpaceOnUse"
       id="clipPath8">
      <path
         d="M 0,660 H 660 V 0 H 0 Z"
         transform="translate(-269.479,-227.81841)"
         id="path8" />
    </clipPath>
    <clipPath
       clipPathUnits="userSpaceOnUse"
       id="clipPath10">
      <path
         d="M 0,660 H 660 V 0 H 0 Z"
         transform="translate(-272.88961,-228.76761)"
         id="path10" />
    </clipPath>
    <clipPath
       clipPathUnits="userSpaceOnUse"
       id="clipPath12">
      <path
         d="M 0,660 H 660 V 0 H 0 Z"
         transform="translate(-339.84771,-294.43951)"
         id="path12" />
    </clipPath>
    <clipPath
       clipPathUnits="userSpaceOnUse"
       id="clipPath14">
      <path
         d="M 0,660 H 660 V 0 H 0 Z"
         transform="translate(-328.79881,-288.6289)"
         id="path14" />
    </clipPath>
    <clipPath
       clipPathUnits="userSpaceOnUse"
       id="clipPath16">
      <path
         d="M 0,660 H 660 V 0 H 0 Z"
         transform="translate(-140.57421,-110.42871)"
         id="path16" />
    </clipPath>
    <clipPath
       clipPathUnits="userSpaceOnUse"
       id="clipPath18">
      <path
         d="M 0,660 H 660 V 0 H 0 Z"
         transform="translate(-319.77001,-162.5674)"
         id="path18" />
    </clipPath>
    <clipPath
       clipPathUnits="userSpaceOnUse"
       id="clipPath20">
      <path
         d="M 0,660 H 660 V 0 H 0 Z"
         id="path20" />
    </clipPath>
    <clipPath
       clipPathUnits="userSpaceOnUse"
       id="clipPath22">
      <path
         d="M 0,660 H 660 V 0 H 0 Z"
         transform="translate(-310.68851,-311.36331)"
         id="path22" />
    </clipPath>
    <clipPath
       clipPathUnits="userSpaceOnUse"
       id="clipPath24">
      <path
         d="M 0,660 H 660 V 0 H 0 Z"
         id="path24" />
    </clipPath>
    <clipPath
       clipPathUnits="userSpaceOnUse"
       id="clipPath26">
      <path
         d="M 0,660 H 660 V 0 H 0 Z"
         transform="translate(-332.88281,-316.81841)"
         id="path26" />
    </clipPath>
    <clipPath
       clipPathUnits="userSpaceOnUse"
       id="clipPath28">
      <path
         d="M 0,660 H 660 V 0 H 0 Z"
         transform="translate(-339.84771,-525.92431)"
         id="path28" />
    </clipPath>
    <clipPath
       clipPathUnits="userSpaceOnUse"
       id="clipPath30">
      <path
         d="M 0,660 H 660 V 0 H 0 Z"
         transform="translate(-314.54001,-421.66991)"
         id="path30" />
    </clipPath>
    <clipPath
       clipPathUnits="userSpaceOnUse"
       id="clipPath32">
      <path
         d="M 0,660 H 660 V 0 H 0 Z"
         transform="translate(-356.59081,-413.18851)"
         id="path32" />
    </clipPath>
    <clipPath
       clipPathUnits="userSpaceOnUse"
       id="clipPath34">
      <path
         d="M 0,660 H 660 V 0 H 0 Z"
         transform="translate(-330.30961,-518.90531)"
         id="path34" />
    </clipPath>
    <clipPath
       clipPathUnits="userSpaceOnUse"
       id="clipPath36">
      <path
         d="M 0,660 H 660 V 0 H 0 Z"
         transform="translate(-357.48931,-467.36471)"
         id="path36" />
    </clipPath>
    <clipPath
       clipPathUnits="userSpaceOnUse"
       id="clipPath38">
      <path
         d="M 0,660 H 660 V 0 H 0 Z"
         transform="translate(-409.36721,-499.59861)"
         id="path38" />
    </clipPath>
  </defs>
  <sodipodi:namedview
     id="namedview1"
     pagecolor="#ffffff"
     bordercolor="#000000"
     borderopacity="0.25"
     inkscape:showpageshadow="2"
     inkscape:pageopacity="0.0"
     inkscape:pagecheckerboard="0"
     inkscape:deskcolor="#d1d1d1"
     inkscape:zoom="0.67272727"
     inkscape:cx="439.25676"
     inkscape:cy="440"
     inkscape:window-width="1440"
     inkscape:window-height="830"
     inkscape:window-x="-6"
     inkscape:window-y="-6"
     inkscape:window-maximized="1"
     inkscape:current-layer="g1">
    <inkscape:page
       x="0"
       y="0"
       inkscape:label="1"
       id="page1"
       width="880"
       height="880"
       margin="0"
       bleed="0" />
  </sodipodi:namedview>
  <g
     id="g1"
     inkscape:groupmode="layer"
     inkscape:label="1">
    <g
       id="group-MC0">
      <path
         id="path2"
         d="M 0,0 H 660 V 660 H 0 Z"
         style="fill:#425f78;fill-opacity:1;fill-rule:nonzero;stroke:none"
         transform="matrix(1.3333333,0,0,-1.3333333,0,880)" />
      <path
         id="path3"
         d="m 0,0 c 106.653,0 193.642,86.987 193.642,193.641 0,106.654 -86.989,193.641 -193.642,193.641 -106.655,0 -193.641,-86.987 -193.641,-193.641 C -193.641,86.987 -106.655,0 0,0"
         style="fill:#447288;fill-opacity:1;fill-rule:evenodd;stroke:none"
         transform="matrix(1.3333333,0,0,-1.3333333,453.1328,528.3568)"
         clip-path="url(#clipPath4)" />
      <path
         id="path5"
         d="m 0,0 c 78.965,0 143.37,64.405 143.37,143.372 0,78.967 -64.405,143.371 -143.37,143.371 -78.967,0 -143.372,-64.404 -143.372,-143.371 C -143.372,64.405 -78.967,0 0,0"
         style="fill:#4e8398;fill-opacity:1;fill-rule:evenodd;stroke:none"
         transform="matrix(1.3333333,0,0,-1.3333333,453.1328,461.332)"
         clip-path="url(#clipPath6)" />
      <path
         id="path7"
         d="M 0,0 54.697,34.435 47.41,72.229 35.449,84.752 c -3.461,3.625 -5.088,8.035 -4.811,13.038 0.277,5.004 2.38,9.207 6.219,12.428 l 0.75,0.627 33.419,-25.769 18.038,-49.678 c 3.101,-8.543 2.547,-17.741 -3.675,-24.37 L 36.451,-41.111 28.477,-54.852 Z"
         style="fill:#ee8356;fill-opacity:1;fill-rule:evenodd;stroke:none"
         transform="matrix(1.3333333,0,0,-1.3333333,359.30533,576.24213)"
         clip-path="url(#clipPath8)" />
      <path
         id="path9"
         d="M 0,0 77.275,28.324 78.26,77.326 66.697,96.104 c -3.343,5.434 -4.197,11.359 -2.52,17.515 1.675,6.159 5.414,10.834 11.055,13.822 l 1.096,0.581 34.757,-40.981 9.239,-66.662 C 121.914,8.913 118.775,-2.39 109.266,-8.988 L 34.449,-60.895 20.863,-75.879 Z"
         style="fill:#ee8356;fill-opacity:1;fill-rule:evenodd;stroke:none"
         transform="matrix(1.3333333,0,0,-1.3333333,363.8528,574.97653)"
         clip-path="url(#clipPath10)" />
      <path
         id="path11"
         d="m 0,0 c 4.777,0 8.648,-2.136 8.648,-4.769 0,-2.634 -3.871,-4.773 -8.648,-4.773 -4.773,0 -8.645,2.139 -8.645,4.773 C -8.645,-2.136 -4.773,0 0,0"
         style="fill:#766864;fill-opacity:1;fill-rule:evenodd;stroke:none"
         transform="matrix(1.3333333,0,0,-1.3333333,453.13027,487.414)"
         clip-path="url(#clipPath12)" />
      <path
         id="path13"
         d="M 0,0 H 22.102 L 40.208,11.698 10.734,19.593 -18.11,11.698 Z"
         style="fill:#2f2825;fill-opacity:1;fill-rule:evenodd;stroke:none"
         transform="matrix(1.3333333,0,0,-1.3333333,438.3984,495.16147)"
         clip-path="url(#clipPath14)" />
      <path
         id="path15"
         d="m 0,0 0.721,40.021 c 0.72,39.966 14.155,74.104 40.867,103.838 l 7.743,8.62 59.007,40.481 41.15,30.129 c 3.602,2.639 7.923,3.238 12.106,1.679 4.188,-1.559 7.064,-4.835 8.064,-9.187 1.128,-4.899 0.312,-10.218 -2.637,-14.742 l -17.425,-26.715 -29.83,-25.169 c -5.01,-4.226 -6.959,-10.606 -5.172,-16.912 1.787,-6.306 6.799,-10.712 13.281,-11.68 l 24.412,-3.642 80.111,18.867 6.845,48.529 -9.229,20.028 c -2.671,5.795 -2.81,11.781 -0.407,17.693 2.4,5.911 6.672,10.105 12.629,12.396 l 1.159,0.445 29.599,-44.847 1.192,-67.289 c 0.205,-11.573 -4.265,-22.418 -14.497,-27.83 L 179.196,52.139 124.436,4.653 C 87.928,-27.007 66.281,-66.401 59.658,-113.184 H -45.957 Z"
         style="fill:#f5a683;fill-opacity:1;fill-rule:evenodd;stroke:none"
         transform="matrix(1.3333333,0,0,-1.3333333,187.43227,732.76173)"
         clip-path="url(#clipPath16)" />
      <path
         id="path17"
         d="m 0,0 -54.759,-47.485 c -36.509,-31.66 -58.156,-71.055 -64.779,-117.837 h -52.806 C -142.22,-102.563 -98.634,-43.574 0,0"
         style="fill:#f28f62;fill-opacity:1;fill-rule:evenodd;stroke:none"
         transform="matrix(1.3333333,0,0,-1.3333333,426.36,663.24347)"
         clip-path="url(#clipPath18)" />
      <path
         id="path19"
         d="m 310.688,360.428 h 58.318 v -60.101 h -58.318 z"
         style="fill:#352d2b;fill-opacity:1;fill-rule:evenodd;stroke:none"
         transform="matrix(1.3333333,0,0,-1.3333333,0,880)"
         clip-path="url(#clipPath20)" />
      <path
         id="path21"
         d="M 0,0 V -7.843 L 58.318,6.493 v 7.843 z M 0,32.72 V 24.877 L 58.318,39.21 v 7.843 z M 0,16.359 c 19.441,4.777 38.88,9.556 58.318,14.335 V 22.852 C 38.88,18.075 19.441,13.296 0,8.517 Z"
         style="fill:#645653;fill-opacity:1;fill-rule:evenodd;stroke:none"
         transform="matrix(1.3333333,0,0,-1.3333333,414.25133,464.84893)"
         clip-path="url(#clipPath22)" />
      <path
         id="path23"
         d="m 310.688,360.428 h 22.194 v -60.101 h -22.194 z"
         style="fill:#463d3b;fill-opacity:1;fill-rule:evenodd;stroke:none"
         transform="matrix(1.3333333,0,0,-1.3333333,0,880)"
         clip-path="url(#clipPath24)" />
      <path
         id="path25"
         d="m 0,0 v -7.841 l -22.194,-5.457 v 7.843 z M 0,16.358 V 8.516 L -22.194,3.061 v 0.125 0.122 0.122 0.123 0.122 0.124 0.12 0.124 0.123 0.122 0.124 0.12 0.124 0.122 0.123 0.122 0.123 0.124 0.12 0.124 0.123 0.122 0.122 0.122 0.124 0.12 0.125 0.12 0.124 0.122 0.122 0.124 0.121 0.124 0.123 0.122 0.124 0.12 0.125 0.122 0.122 0.122 0.122 0.122 0.123 0.124 0.122 0.122 0.122 0.123 0.124 0.121 0.124 0.122 0.122 0.123 0.122 0.124 0.122 0.122 0.122 0.123 0.124 0.12 z m 0,16.359 v -7.841 l -22.194,-5.454 v 7.843 z"
         style="fill:#766864;fill-opacity:1;fill-rule:evenodd;stroke:none"
         transform="matrix(1.3333333,0,0,-1.3333333,443.84373,457.57547)"
         clip-path="url(#clipPath26)" />
      <path
         id="path27"
         d="m 0,0 c 38.442,0 69.607,-31.164 69.607,-69.606 0,-19.622 -8.121,-37.346 -21.183,-49.998 -8.759,-8.481 -13.205,-18.973 -13.205,-31.167 v -8.668 c 0,-3.332 -2.726,-6.057 -6.06,-6.057 h -58.318 c -3.33,0 -6.057,2.725 -6.057,6.057 v 8.667 c 0,12.193 -4.447,22.687 -13.203,31.168 -13.065,12.652 -21.184,30.376 -21.184,49.998 C -69.603,-31.164 -38.44,0 0,0"
         style="fill:#fbca07;fill-opacity:1;fill-rule:evenodd;stroke:none"
         transform="matrix(1.3333333,0,0,-1.3333333,453.13027,178.7676)"
         clip-path="url(#clipPath28)" />
      <path
         id="path29"
         d="m 0,0 c -2.905,-0.576 -4.813,-3.426 -4.236,-6.332 0.575,-2.907 3.424,-4.813 6.332,-4.237 l 48.519,9.61 c 2.907,0.576 4.814,3.424 4.239,6.331 -0.576,2.906 -3.425,4.813 -6.331,4.238 z m 0,37.189 c -2.905,-0.576 -4.813,-3.424 -4.236,-6.331 0.575,-2.907 3.424,-4.814 6.332,-4.238 l 48.519,9.61 c 2.907,0.575 4.814,3.424 4.239,6.331 -0.576,2.906 -3.425,4.813 -6.331,4.237 z M 0,18.594 c 16.174,3.203 32.349,6.407 48.523,9.61 2.906,0.576 5.755,-1.33 6.331,-4.237 0.575,-2.906 -1.332,-5.756 -4.239,-6.332 C 34.442,14.432 18.269,11.228 2.096,8.025 -0.812,7.45 -3.661,9.357 -4.236,12.263 -4.813,15.169 -2.905,18.018 0,18.594"
         style="fill:#faf462;fill-opacity:1;fill-rule:evenodd;stroke:none"
         transform="matrix(1.3333333,0,0,-1.3333333,419.38667,317.77347)"
         clip-path="url(#clipPath30)" />
      <path
         id="path31"
         d="M 0,0 V -52.76 H -11.405 V -2.259 Z M -22.079,-4.373 V -52.76 h -11.408 v 46.127 z"
         style="fill:#faf462;fill-opacity:1;fill-rule:evenodd;stroke:none"
         transform="matrix(1.3333333,0,0,-1.3333333,475.4544,329.082)"
         clip-path="url(#clipPath32)" />
      <path
         id="path33"
         d="m 0,0 c 23.184,0 37.429,-17.95 31.82,-40.092 -5.61,-22.14 -28.951,-40.091 -52.13,-40.091 -23.184,0 -37.429,17.951 -31.82,40.091 C -46.52,-17.95 -23.182,0 0,0"
         style="fill:#f9de1c;fill-opacity:1;fill-rule:evenodd;stroke:none"
         transform="matrix(1.3333333,0,0,-1.3333333,440.4128,188.12627)"
         clip-path="url(#clipPath34)" />
      <path
         id="path35"
         d="m 0,0 c -2.697,-4.774 -6.204,-9.174 -10.286,-13.021 l -30.568,-6.054 c -2.907,-0.576 -5.756,1.331 -6.331,4.238 -0.577,2.907 1.331,5.755 4.236,6.331 z m -42.949,-27.101 16.72,3.312 c -6.192,-2.844 -12.835,-4.556 -19.501,-4.816 0.733,0.746 1.687,1.288 2.781,1.504"
         style="fill:#fcfaa7;fill-opacity:1;fill-rule:evenodd;stroke:none"
         transform="matrix(1.3333333,0,0,-1.3333333,476.6524,256.84707)"
         clip-path="url(#clipPath36)" />
      <path
         id="path37"
         d="m 0,0 26.75,15.444 c 2.635,1.526 6.01,0.627 7.534,-2.008 1.527,-2.635 0.627,-6.008 -2.008,-7.535 L 5.199,-9.732 C 3.683,-6.36 1.941,-3.111 0,0 m -31.984,29.513 14.87,25.757 c 1.514,2.635 4.879,3.544 7.513,2.029 2.635,-1.514 3.543,-4.878 2.031,-7.512 L -22.567,23.811 c -2.999,2.102 -6.144,4.009 -9.417,5.702 m -43.062,8.903 v 29.432 c 0,3.052 2.475,5.527 5.526,5.527 3.054,0 5.527,-2.475 5.527,-5.527 V 38.416 c -1.825,0.123 -3.667,0.191 -5.527,0.191 -1.855,0 -3.699,-0.068 -5.526,-0.191 m -41.422,-14.605 -14.996,25.976 c -1.515,2.634 -0.607,5.998 2.028,7.512 2.635,1.515 5.999,0.606 7.514,-2.029 l 14.87,-25.757 c -3.274,-1.693 -6.418,-3.6 -9.416,-5.702 m -27.768,-33.543 -27.079,15.633 c -2.633,1.526 -3.533,4.9 -2.008,7.535 1.527,2.634 4.901,3.534 7.536,2.007 L -139.039,0 c -1.939,-3.111 -3.683,-6.36 -5.197,-9.732 m -6.703,-42.298 h -32.932 c -3.052,0 -5.526,2.474 -5.526,5.526 0,3.052 2.474,5.528 5.526,5.528 h 32.499 c -0.022,-0.766 -0.034,-1.534 -0.034,-2.305 0,-2.939 0.158,-5.86 0.467,-8.749 m 15.018,-39.178 -29.866,-17.245 c -2.635,-1.523 -6.009,-0.625 -7.536,2.01 -1.523,2.635 -0.625,6.009 2.01,7.534 l 29.545,17.059 c 1.731,-3.237 3.683,-6.364 5.847,-9.358 m 19.689,-47.213 -5.69,-9.856 c -1.515,-2.636 -4.879,-3.543 -7.514,-2.031 -2.635,1.516 -3.543,4.88 -2.028,7.515 l 13.96,24.181 c 0.325,-1.867 0.487,-3.811 0.487,-5.835 v -8.666 c 0,-1.845 0.276,-3.627 0.785,-5.308 m 52.239,-13.033 v -9.401 c 0,-3.054 -2.473,-5.527 -5.527,-5.527 -3.051,0 -5.526,2.473 -5.526,5.527 v 9.401 z m 42.46,32.842 13.963,-24.181 c 1.512,-2.635 0.604,-5.999 -2.031,-7.515 -2.634,-1.514 -5.999,-0.605 -7.513,2.031 l -5.69,9.856 c 0.509,1.679 0.784,3.463 0.784,5.308 v 8.668 c 0,2.022 0.163,3.966 0.487,5.833 M 2.73,-81.85 32.276,-98.909 c 2.635,-1.525 3.535,-4.899 2.008,-7.536 -1.524,-2.633 -4.899,-3.533 -7.534,-2.008 l -29.866,17.245 c 2.164,2.994 4.115,6.121 5.846,9.358 m 42.104,40.874 c 3.052,0 5.526,-2.476 5.526,-5.528 0,-3.052 -2.474,-5.526 -5.526,-5.526 H 11.902 c 0.309,2.889 0.467,5.81 0.467,8.749 0,0.771 -0.015,1.539 -0.034,2.305 z"
         style="fill:#fbca07;fill-opacity:1;fill-rule:evenodd;stroke:none"
         transform="matrix(1.3333333,0,0,-1.3333333,545.82293,213.86853)"
         clip-path="url(#clipPath38)" />
    </g>
  </g>
</svg>
