<?xml version="1.0" encoding="UTF-8" standalone="no"?>
<!-- Created with Inkscape (http://www.inkscape.org/) -->

<svg
   version="1.1"
   id="svg1"
   width="880"
   height="880"
   viewBox="0 0 880 880"
   sodipodi:docname="laptop-and-a-notebook.svg"
   inkscape:version="1.3.2 (091e20e, 2023-11-25, custom)"
   xmlns:inkscape="http://www.inkscape.org/namespaces/inkscape"
   xmlns:sodipodi="http://sodipodi.sourceforge.net/DTD/sodipodi-0.dtd"
   xmlns="http://www.w3.org/2000/svg"
   xmlns:svg="http://www.w3.org/2000/svg">
  <defs
     id="defs1">
    <clipPath
       clipPathUnits="userSpaceOnUse"
       id="clipPath3">
      <path
         d="M 0,660 H 660 V 0 H 0 Z"
         transform="translate(-578.65921,-344.63331)"
         id="path3" />
    </clipPath>
    <clipPath
       clipPathUnits="userSpaceOnUse"
       id="clipPath5">
      <path
         d="M 0,660 H 660 V 0 H 0 Z"
         transform="translate(-426.81931,-417.13131)"
         id="path5" />
    </clipPath>
    <clipPath
       clipPathUnits="userSpaceOnUse"
       id="clipPath7">
      <path
         d="M 0,660 H 660 V 0 H 0 Z"
         transform="translate(-120.1665,-369.29981)"
         id="path7" />
    </clipPath>
    <clipPath
       clipPathUnits="userSpaceOnUse"
       id="clipPath9">
      <path
         d="M 0,660 H 660 V 0 H 0 Z"
         transform="translate(-177.01611,-514.33841)"
         id="path9" />
    </clipPath>
    <clipPath
       clipPathUnits="userSpaceOnUse"
       id="clipPath11">
      <path
         d="M 0,660 H 660 V 0 H 0 Z"
         transform="translate(-188.6929,-524.45362)"
         id="path11" />
    </clipPath>
    <clipPath
       clipPathUnits="userSpaceOnUse"
       id="clipPath13">
      <path
         d="M 0,660 H 660 V 0 H 0 Z"
         transform="translate(-435.19341,-593.51122)"
         id="path13" />
    </clipPath>
    <clipPath
       clipPathUnits="userSpaceOnUse"
       id="clipPath15">
      <path
         d="M 0,660 H 660 V 0 H 0 Z"
         transform="translate(-172.64361,-638.24072)"
         id="path15" />
    </clipPath>
    <clipPath
       clipPathUnits="userSpaceOnUse"
       id="clipPath17">
      <path
         d="M 0,660 H 660 V 0 H 0 Z"
         transform="translate(-436.84471,-421.86721)"
         id="path17" />
    </clipPath>
    <clipPath
       clipPathUnits="userSpaceOnUse"
       id="clipPath19">
      <path
         d="M 0,660 H 660 V 0 H 0 Z"
         transform="translate(-417.03131,-403.74661)"
         id="path19" />
    </clipPath>
    <clipPath
       clipPathUnits="userSpaceOnUse"
       id="clipPath21">
      <path
         d="M 0,660 H 660 V 0 H 0 Z"
         transform="translate(-509.54201,-293.58591)"
         id="path21" />
    </clipPath>
    <clipPath
       clipPathUnits="userSpaceOnUse"
       id="clipPath23">
      <path
         d="M 0,660 H 660 V 0 H 0 Z"
         transform="translate(-509.54201,-293.58591)"
         id="path23" />
    </clipPath>
    <clipPath
       clipPathUnits="userSpaceOnUse"
       id="clipPath25">
      <path
         d="M 0,660 H 660 V 0 H 0 Z"
         transform="translate(-508.48541,-365.48291)"
         id="path25" />
    </clipPath>
    <clipPath
       clipPathUnits="userSpaceOnUse"
       id="clipPath27">
      <path
         d="M 0,660 H 660 V 0 H 0 Z"
         transform="translate(-298.7134,-156.24021)"
         id="path27" />
    </clipPath>
    <clipPath
       clipPathUnits="userSpaceOnUse"
       id="clipPath29">
      <path
         d="M 0,660 H 660 V 0 H 0 Z"
         transform="translate(-310.55711,-293.58891)"
         id="path29" />
    </clipPath>
    <clipPath
       clipPathUnits="userSpaceOnUse"
       id="clipPath31">
      <path
         d="M 0,660 H 660 V 0 H 0 Z"
         transform="translate(-112.6777,-200.6602)"
         id="path31" />
    </clipPath>
    <clipPath
       clipPathUnits="userSpaceOnUse"
       id="clipPath33">
      <path
         d="M 0,660 H 660 V 0 H 0 Z"
         transform="translate(-241.0444,-313.44921)"
         id="path33" />
    </clipPath>
  </defs>
  <sodipodi:namedview
     id="namedview1"
     pagecolor="#ffffff"
     bordercolor="#000000"
     borderopacity="0.25"
     inkscape:showpageshadow="2"
     inkscape:pageopacity="0.0"
     inkscape:pagecheckerboard="0"
     inkscape:deskcolor="#d1d1d1"
     inkscape:zoom="0.67272727"
     inkscape:cx="439.25676"
     inkscape:cy="440"
     inkscape:window-width="1440"
     inkscape:window-height="830"
     inkscape:window-x="-6"
     inkscape:window-y="-6"
     inkscape:window-maximized="1"
     inkscape:current-layer="g1">
    <inkscape:page
       x="0"
       y="0"
       inkscape:label="1"
       id="page1"
       width="880"
       height="880"
       margin="152.636 65.67733 20.750668 64.102798"
       bleed="0" />
  </sodipodi:namedview>
  <g
     id="g1"
     inkscape:groupmode="layer"
     inkscape:label="1">
    <g
       id="group-MC0">
      <path
         id="path2"
         d="m 0,0 c 20.19,-18.803 32.083,-41.876 32.083,-66.815 0,-59.721 -68.201,-108.766 -155.253,-114.068 -20.682,-1.26 -38.155,-7.008 -56.005,-18.426 -30.088,-19.248 -68.947,-30.848 -111.38,-30.848 -80.403,0 -147.99,41.637 -167.353,98.045 -8.852,25.788 -22.551,45.449 -42.996,61.7 -18.478,14.686 -29.678,33.919 -29.678,54.973 0,9.342 2.205,18.326 6.274,26.714 12.8,26.387 16.985,52.952 12.993,82.462 -0.367,2.707 -0.553,5.448 -0.553,8.215 0,51.656 65.073,93.532 145.344,93.532 33.883,0 65.055,-7.464 89.767,-19.974 16.697,-8.45 32.415,-12.345 50.832,-12.598 98.201,-1.347 177.711,-36.749 184.09,-81.289 C -37.099,48.571 -23.373,21.771 0,0"
         style="fill:#e1e7f6;fill-opacity:1;fill-rule:evenodd;stroke:none"
         transform="matrix(1.3333333,0,0,-1.3333333,771.5456,420.48893)"
         clip-path="url(#clipPath3)" />
      <path
         id="path4"
         d="M 0,0 H 18.769 V -16.673 H -0.364 Z"
         style="fill:#ffffff;fill-opacity:1;fill-rule:evenodd;stroke:none"
         transform="matrix(1.3333333,0,0,-1.3333333,569.0924,323.82493)"
         clip-path="url(#clipPath5)" />
      <path
         id="path6"
         d="M 0,0 56.85,145.039 315.588,98.393 306.841,-70.698 Z"
         style="fill:#2f2825;fill-opacity:1;fill-rule:evenodd;stroke:none"
         transform="matrix(1.3333333,0,0,-1.3333333,160.222,387.60027)"
         clip-path="url(#clipPath7)" />
      <path
         id="path8"
         d="M 0,0 -4.373,123.902 341.826,80.901 258.739,-46.646 Z"
         style="fill:#463d3b;fill-opacity:1;fill-rule:evenodd;stroke:none"
         transform="matrix(1.3333333,0,0,-1.3333333,236.02147,194.21547)"
         clip-path="url(#clipPath9)" />
      <path
         id="path10"
         d="M 0,0 241.341,-43.509 309.569,61.225 -3.534,100.114 Z"
         style="fill:#766864;fill-opacity:1;fill-rule:evenodd;stroke:none"
         transform="matrix(1.3333333,0,0,-1.3333333,251.59053,180.72853)"
         clip-path="url(#clipPath11)" />
      <path
         id="path12"
         d="m 0,0 -247.63,-37.073 -0.986,27.942 107.778,26.625 z m 37.56,-46.99 25.508,39.157 -12.84,1.594 -297.435,-42.834 0.656,-18.564 z"
         style="fill:#948681;fill-opacity:1;fill-rule:evenodd;stroke:none"
         transform="matrix(1.3333333,0,0,-1.3333333,580.25787,88.651733)"
         clip-path="url(#clipPath13)" />
      <path
         id="path14"
         d="m 0,0 20.77,6.196 311.303,-37.528 14.125,-11.669 z"
         style="fill:#2f2825;fill-opacity:1;fill-rule:evenodd;stroke:none"
         transform="matrix(1.3333333,0,0,-1.3333333,230.19147,29.0124)"
         clip-path="url(#clipPath15)" />
      <path
         id="path16"
         d="m 0,0 -1.003,-26.694 55.938,-4.92 -5.102,32.616 z"
         style="fill:#7b90d1;fill-opacity:1;fill-rule:evenodd;stroke:none"
         transform="matrix(1.3333333,0,0,-1.3333333,582.4596,317.5104)"
         clip-path="url(#clipPath17)" />
      <path
         id="path18"
         d="m 0,0 -2.056,-28.798 -28.172,5.785 2.409,28.042 z M 2.167,30.339 -25.237,35.089 -27.278,11.333 0.46,6.449 Z M -23.303,57.6 3.774,52.832 2.488,34.814 -24.848,39.626 Z m -9.132,-51.738 -3.573,-27.688 -26.947,5.534 3.093,27.11 z m 3.849,29.808 -27.893,4.835 -2.685,-23.56 27.535,-4.847 z m -25.33,27.321 28.214,-4.969 -2.302,-17.84 -27.95,4.921 z m -10.546,-51.342 -4.224,-26.764 -26.977,5.542 3.745,26.182 z m 4.645,29.434 -27.908,4.838 -3.341,-23.359 27.56,-4.854 z m -24.697,27.296 -2.546,-17.8 27.964,-4.923 2.803,17.754 z m -11.987,-50.942 -4.848,-25.842 -27.004,5.545 4.371,25.265 z m 5.45,29.06 -4.346,-23.173 -27.586,4.855 4.005,23.159 z m -24.048,27.269 28.231,-4.972 -3.313,-17.667 -27.982,4.927 z m -13.453,-50.536 -27.509,4.97 -4.967,-24.349 27.033,-5.553 z m 6.263,28.682 -27.946,4.844 -4.683,-22.954 27.613,-4.862 z m -23.377,27.237 -3.595,-17.621 27.996,-4.928 3.836,17.577 z M -160.613,29.023 -166.622,5 l -27.065,5.558 5.536,23.441 z m 7.08,28.305 -5.695,-22.767 -27.642,4.866 5.372,22.748 z m -22.686,27.202 28.246,-4.974 -4.373,-17.485 -28.012,4.931 z m -16.468,-49.712 -27.567,4.982 -6.071,-22.538 27.095,-5.566 z m 7.905,27.926 -27.984,4.851 -6.073,-22.541 27.672,-4.87 z m -21.974,27.164 -4.696,-17.432 28.028,-4.934 4.923,17.389 z m -33.549,-12.352 6.112,17.184 25.179,-4.434 -5.485,-17.294 z m -9.614,-27.031 7.876,22.144 26.006,-4.507 -7.088,-22.353 z m -9.419,-26.483 7.627,21.442 26.939,-4.868 -7.049,-22.224 z m 88.554,-25.874 -10.933,-39.356 83.636,-18.769 6.012,40.815 z"
         style="fill:#766864;fill-opacity:1;fill-rule:evenodd;stroke:none"
         transform="matrix(1.3333333,0,0,-1.3333333,556.04173,341.6712)"
         clip-path="url(#clipPath19)" />
      <path
         id="path20"
         d="M 0,0 C -14.556,10.128 -7.794,34.704 -13.896,51.354 -23.023,76.265 1.238,89.822 28.699,70.989 49.647,56.627 68.123,24.455 58.604,0.906 51.284,-17.208 16.038,-11.158 0,0"
         style="fill:#ffffff;fill-opacity:1;fill-rule:evenodd;stroke:none"
         transform="matrix(1.3333333,0,0,-1.3333333,679.38933,488.55213)"
         clip-path="url(#clipPath21)" />
      <path
         id="path22"
         d="m 0,0 c -14.556,10.128 -7.794,34.704 -13.896,51.354 -1.193,3.259 -1.809,6.32 -1.929,9.141 C -2.664,52.433 7.351,26.708 9.096,-4.932 5.694,-3.477 2.595,-1.806 0,0"
         style="fill:#7b90d1;fill-opacity:1;fill-rule:evenodd;stroke:none"
         transform="matrix(1.3333333,0,0,-1.3333333,679.38933,488.55213)"
         clip-path="url(#clipPath23)" />
      <path
         id="path24"
         d="M 0,0 10.27,3.624 30.36,-16.464 15.406,-21.299 Z"
         style="fill:#463d3b;fill-opacity:1;fill-rule:evenodd;stroke:none"
         transform="matrix(1.3333333,0,0,-1.3333333,677.98053,392.68947)"
         clip-path="url(#clipPath25)" />
      <path
         id="path26"
         d="M 0,0 27.264,126.277 -166.524,152.998 -198.921,38.375 Z"
         style="fill:#7b90d1;fill-opacity:1;fill-rule:evenodd;stroke:none"
         transform="matrix(1.3333333,0,0,-1.3333333,398.28453,671.67973)"
         clip-path="url(#clipPath27)" />
      <path
         id="path28"
         d="m 0,0 5.103,-18.95 -26.604,-112.607 -176.378,38.628 z"
         style="fill:#dce3f5;fill-opacity:1;fill-rule:evenodd;stroke:none"
         transform="matrix(1.3333333,0,0,-1.3333333,414.07613,488.54813)"
         clip-path="url(#clipPath29)" />
      <path
         id="path30"
         d="m 0,0 c 10.933,37.778 21.866,75.559 32.798,113.337 24.882,-3.338 59.967,17.011 74.644,-10.014 17.757,20.588 60.292,-6.931 90.437,-10.394 C 188.162,51.87 178.443,10.811 168.727,-30.246 137.994,-24.779 103.981,4.01 76.529,-13.848 56.485,8.626 25.509,-4.615 0,0"
         style="fill:#ffffff;fill-opacity:1;fill-rule:evenodd;stroke:none"
         transform="matrix(1.3333333,0,0,-1.3333333,150.23693,612.45307)"
         clip-path="url(#clipPath31)" />
      <path
         id="path32"
         d="m 0,0 -26.239,-93.656 15.305,-4.372 22.23,96.57 z"
         style="fill:#7b90d1;fill-opacity:1;fill-rule:evenodd;stroke:none"
         transform="matrix(1.3333333,0,0,-1.3333333,321.39253,462.06773)"
         clip-path="url(#clipPath33)" />
    </g>
  </g>
</svg>
