<?xml version="1.0" encoding="UTF-8" standalone="no"?>
<!-- Created with Inkscape (http://www.inkscape.org/) -->

<svg
   version="1.1"
   id="svg2735"
   width="880"
   height="880"
   viewBox="0 0 880 880"
   sodipodi:docname="hands-together-publicdomainvectors.org.svg"
   inkscape:version="1.2 (dc2aedaf03, 2022-05-15)"
   xmlns:inkscape="http://www.inkscape.org/namespaces/inkscape"
   xmlns:sodipodi="http://sodipodi.sourceforge.net/DTD/sodipodi-0.dtd"
   xmlns="http://www.w3.org/2000/svg"
   xmlns:svg="http://www.w3.org/2000/svg">
  <defs
     id="defs2739">
    <clipPath
       clipPathUnits="userSpaceOnUse"
       id="clipPath2759">
      <path
         d="M 0,660 H 660 V 0 H 0 Z"
         id="path2757" />
    </clipPath>
  </defs>
  <sodipodi:namedview
     id="namedview2737"
     pagecolor="#ffffff"
     bordercolor="#000000"
     borderopacity="0.25"
     inkscape:showpageshadow="2"
     inkscape:pageopacity="0.0"
     inkscape:pagecheckerboard="0"
     inkscape:deskcolor="#d1d1d1"
     showgrid="false"
     inkscape:zoom="0.95113636"
     inkscape:cx="440.52569"
     inkscape:cy="440.52569"
     inkscape:window-width="1920"
     inkscape:window-height="1017"
     inkscape:window-x="-8"
     inkscape:window-y="-8"
     inkscape:window-maximized="1"
     inkscape:current-layer="g2743">
    <inkscape:page
       x="0"
       y="0"
       id="page2741"
       width="880"
       height="880" />
  </sodipodi:namedview>
  <g
     id="g2743"
     inkscape:groupmode="layer"
     inkscape:label="Page 1"
     transform="matrix(1.3333333,0,0,-1.3333333,0,880)">
    <g
       id="g2745"
       transform="translate(304.1216,499.7534)">
      <path
         d="m 0,0 -124.888,-47.832 -74.02,186.627 h 143.86 z"
         style="fill:#e5a158;fill-opacity:1;fill-rule:evenodd;stroke:none"
         id="path2747" />
    </g>
    <g
       id="g2749"
       transform="translate(249.2959,638.5479)">
      <path
         d="M 0,0 45.514,-114.48 3.819,-130.447 -48.041,0 Z"
         style="fill:#ce8943;fill-opacity:1;fill-rule:evenodd;stroke:none"
         id="path2751" />
    </g>
    <g
       id="g2753">
      <g
         id="g2755"
         clip-path="url(#clipPath2759)">
        <g
           id="g2761"
           transform="translate(120.1567,289.5332)">
          <path
             d="m 0,0 v 0 c -17.986,4.838 -28.743,23.512 -23.905,41.496 l 42.647,158.54 c 4.838,17.986 23.51,28.744 41.496,23.904 17.984,-4.838 28.741,-23.51 23.905,-41.496 L 41.496,23.905 C 36.658,5.92 17.984,-4.836 0,0"
             style="fill:#e5a158;fill-opacity:1;fill-rule:evenodd;stroke:none"
             id="path2763" />
        </g>
        <g
           id="g2765"
           transform="translate(175.3081,225.0811)">
          <path
             d="M 0,0 H -0.001 C -17.986,4.838 -28.743,23.512 -23.905,41.496 L 18.74,200.037 c 4.839,17.985 23.511,28.741 41.497,23.903 17.986,-4.838 28.743,-23.51 23.904,-41.496 L 41.496,23.905 C 36.658,5.919 17.985,-4.838 0,0"
             style="fill:#ce8943;fill-opacity:1;fill-rule:evenodd;stroke:none"
             id="path2767" />
        </g>
        <g
           id="g2769"
           transform="translate(150.981,249.5732)">
          <path
             d="m 0,0 h -0.002 c -17.984,4.836 -28.741,23.51 -23.903,41.495 l 42.645,158.54 c 4.839,17.984 23.512,28.741 41.498,23.904 v -0.001 C 78.223,219.1 88.98,200.428 84.141,182.442 L 41.496,23.903 C 36.658,5.917 17.986,-4.84 0,0"
             style="fill:#ce8943;fill-opacity:1;fill-rule:evenodd;stroke:none"
             id="path2771" />
        </g>
        <g
           id="g2773"
           transform="translate(170.3022,240.2002)">
          <path
             d="m 0,0 h -0.001 c -9.166,2.467 -14.648,11.983 -12.184,21.148 l 1.003,3.729 C -8.716,34.044 0.801,39.526 9.968,37.06 19.135,34.595 24.616,25.077 22.15,15.912 L 21.148,12.183 C 18.683,3.016 9.166,-2.466 0,0"
             style="fill:#f5d6b1;fill-opacity:1;fill-rule:evenodd;stroke:none"
             id="path2775" />
        </g>
        <g
           id="g2777"
           transform="translate(220.7456,382.0278)">
          <path
             d="m 0,0 -12.299,3.307 c -49.509,13.318 -79.12,64.721 -65.802,114.228 13.316,49.509 64.719,79.12 114.228,65.802 L 48.425,180.03 C 97.933,166.711 127.544,115.309 114.226,65.801 100.909,16.293 49.506,-13.318 0,0"
             style="fill:#e5a158;fill-opacity:1;fill-rule:evenodd;stroke:none"
             id="path2779" />
        </g>
        <g
           id="g2781"
           transform="translate(335.126,435.4009)">
          <path
             d="m 0,0 -28.941,-11.246 c -27.733,-10.775 -59.24,3.099 -70.015,30.831 l -1.722,4.432 c -10.777,27.734 3.098,59.24 30.832,70.016 27.732,10.775 59.239,-3.099 70.016,-30.831 L 13.135,29.83 C 17.726,18.014 11.815,4.59 0,0"
             style="fill:#e5a158;fill-opacity:1;fill-rule:evenodd;stroke:none"
             id="path2783" />
        </g>
        <g
           id="g2785"
           transform="translate(364.4512,377.353)">
          <path
             d="m 0,0 -13.27,-5.157 c -15.878,-6.17 -33.917,1.775 -40.087,17.653 l -27.579,70.98 c -6.17,15.878 1.774,33.917 17.652,40.087 15.88,6.168 33.919,-1.774 40.088,-17.652 L 9.539,21.66 C 12.872,13.08 8.58,3.333 0,0"
             style="fill:#e5a158;fill-opacity:1;fill-rule:evenodd;stroke:none"
             id="path2787" />
        </g>
        <g
           id="g2789"
           transform="translate(356.6709,345.7788)">
          <path
             d="m 0,0 h -0.002 c -18.16,-7.057 -38.792,2.029 -45.849,20.19 l -2.868,7.385 c -7.056,18.16 2.028,38.793 20.189,45.848 l 0.001,0.001 c 18.161,7.056 38.792,-2.029 45.848,-20.19 l 2.869,-7.386 C 27.245,27.687 18.16,7.057 0,0"
             style="fill:#e5a158;fill-opacity:1;fill-rule:evenodd;stroke:none"
             id="path2791" />
        </g>
        <g
           id="g2793"
           transform="translate(365.6104,366.0786)">
          <path
             d="m 0,0 v 0 c -8.849,-3.439 -18.898,0.989 -22.338,9.835 l -1.397,3.599 c -3.439,8.849 0.989,18.899 9.835,22.338 8.848,3.437 18.9,-0.989 22.338,-9.836 l 1.399,-3.6 C 13.274,13.489 8.848,3.437 0,0"
             style="fill:#fef3e6;fill-opacity:1;fill-rule:evenodd;stroke:none"
             id="path2795" />
        </g>
        <g
           id="g2797"
           transform="translate(211.2881,235.9883)">
          <path
             d="m 0,0 v 0 c -17.986,4.84 -28.743,23.512 -23.903,41.498 l 42.644,158.539 c 4.838,17.985 23.511,28.742 41.496,23.903 h 0.002 C 78.223,219.102 88.98,200.43 84.142,182.444 L 41.496,23.905 C 36.658,5.919 17.985,-4.838 0,0"
             style="fill:#e5a158;fill-opacity:1;fill-rule:evenodd;stroke:none"
             id="path2799" />
        </g>
        <g
           id="g2801"
           transform="translate(203.834,250.6797)">
          <path
             d="m 0,0 v 0 c -9.168,2.467 -14.649,11.983 -12.183,21.15 l 1.002,3.728 C -8.715,34.045 0.802,39.527 9.968,37.061 H 9.969 C 19.135,34.596 24.619,25.079 22.153,15.912 L 21.149,12.183 C 18.684,3.017 9.167,-2.466 0,0"
             style="fill:#fef3e6;fill-opacity:1;fill-rule:evenodd;stroke:none"
             id="path2803" />
        </g>
        <g
           id="g2805"
           transform="translate(141.0176,265.1406)">
          <path
             d="m 0,0 v 0 c -8.21,2.208 -13.119,10.73 -10.91,18.94 l 0.896,3.339 C -7.805,30.488 0.718,35.398 8.927,33.19 17.137,30.982 22.046,22.459 19.839,14.249 L 18.941,10.91 C 16.732,2.701 8.21,-2.209 0,0"
             style="fill:#f5d6b1;fill-opacity:1;fill-rule:evenodd;stroke:none"
             id="path2807" />
        </g>
        <g
           id="g2809"
           transform="translate(111.0576,307.8125)">
          <path
             d="M 0,0 H -0.001 C -8.21,2.209 -13.119,10.731 -10.912,18.941 l 0.899,3.339 c 2.208,8.209 10.732,13.119 18.94,10.91 H 8.929 C 17.137,30.982 22.048,22.46 19.839,14.249 L 18.94,10.91 C 16.731,2.702 8.209,-2.208 0,0"
             style="fill:#fef3e6;fill-opacity:1;fill-rule:evenodd;stroke:none"
             id="path2811" />
        </g>
        <g
           id="g2813"
           transform="translate(210.7559,359.2646)">
          <path
             d="M 0,0 118.5,-75.513 -8.914,-280.208 h -164.349 v 1.856 z"
             style="fill:#724d2b;fill-opacity:1;fill-rule:evenodd;stroke:none"
             id="path2815" />
        </g>
        <g
           id="g2817"
           transform="translate(37.4927,81.0703)">
          <path
             d="M 0,0 158.561,255.122 198.122,229.914 53.978,-2.014 H 0 Z"
             style="fill:#3e2718;fill-opacity:1;fill-rule:evenodd;stroke:none"
             id="path2819" />
        </g>
        <g
           id="g2821"
           transform="translate(503.3027,335.4556)">
          <path
             d="m 0,0 v 0 c 7.166,-18.21 -1.871,-38.971 -20.08,-46.137 l -160.519,-63.168 c -18.209,-7.166 -38.969,1.869 -46.135,20.081 -7.167,18.208 1.87,38.969 20.078,46.136 L -46.138,20.08 C -27.928,27.246 -7.167,18.209 0,0"
             style="fill:#724d2b;fill-opacity:1;fill-rule:evenodd;stroke:none"
             id="path2823" />
        </g>
        <g
           id="g2825"
           transform="translate(523.2168,422.3325)">
          <path
             d="m 0,0 v 0 c 7.165,-18.21 -1.871,-38.972 -20.081,-46.139 l -160.517,-63.167 c -18.209,-7.165 -38.971,1.869 -46.138,20.08 -7.165,18.208 1.871,38.971 20.08,46.137 L -46.138,20.079 C -27.93,27.245 -7.167,18.21 0,0"
             style="fill:#3e2718;fill-opacity:1;fill-rule:evenodd;stroke:none"
             id="path2827" />
        </g>
        <g
           id="g2829"
           transform="translate(517.7568,386.4766)">
          <path
             d="m 0,0 v 0 c 7.167,-18.211 -1.869,-38.972 -20.079,-46.139 l -160.517,-63.167 c -18.209,-7.167 -38.971,1.869 -46.138,20.078 -7.166,18.21 1.871,38.973 20.08,46.138 L -46.137,20.077 C -27.928,27.244 -7.165,18.21 0,0"
             style="fill:#3e2718;fill-opacity:1;fill-rule:evenodd;stroke:none"
             id="path2831" />
        </g>
        <g
           id="g2833"
           transform="translate(513.584,408.6499)">
          <path
             d="m 0,0 v 0 c 3.652,-9.281 -0.953,-19.863 -10.234,-23.515 l -3.774,-1.486 c -9.281,-3.652 -19.863,0.953 -23.514,10.234 -3.653,9.28 0.952,19.862 10.233,23.515 l 3.774,1.486 C -14.233,13.885 -3.652,9.28 0,0"
             style="fill:#724d2b;fill-opacity:1;fill-rule:evenodd;stroke:none"
             id="path2835" />
        </g>
        <g
           id="g2837"
           transform="translate(362.2979,362.5171)">
          <path
             d="m 0,0 4.9,-12.451 c 19.726,-50.127 -5.147,-107.278 -55.274,-127.005 -50.125,-19.725 -107.276,5.147 -127.002,55.273 l -4.9,12.453 c -19.726,50.127 5.146,107.276 55.272,127.002 C -76.878,74.999 -19.726,50.126 0,0"
             style="fill:#724d2b;fill-opacity:1;fill-rule:evenodd;stroke:none"
             id="path2839" />
        </g>
        <g
           id="g2841"
           transform="translate(245.6909,425.6943)">
          <path
             d="m 0,0 27.596,-17.398 c 26.447,-16.674 34.44,-51.952 17.768,-78.396 l -2.663,-4.224 c -16.674,-26.447 -51.949,-34.441 -78.395,-17.768 -26.446,16.672 -34.442,51.949 -17.769,78.394 L -33.4,-7.571 C -26.297,3.696 -11.267,7.103 0,0"
             style="fill:#724d2b;fill-opacity:1;fill-rule:evenodd;stroke:none"
             id="path2843" />
        </g>
        <g
           id="g2845"
           transform="translate(276.3516,486.7617)">
          <path
             d="m 0,0 12.653,-7.979 c 15.141,-9.545 19.719,-29.743 10.174,-44.884 l -42.67,-67.681 c -9.547,-15.143 -29.744,-19.719 -44.886,-10.173 -15.14,9.545 -19.718,29.744 -10.172,44.884 l 50.648,80.336 C -19.094,2.684 -8.181,5.157 0,0"
             style="fill:#724d2b;fill-opacity:1;fill-rule:evenodd;stroke:none"
             id="path2847" />
        </g>
        <g
           id="g2849"
           transform="translate(307.874,499.9429)">
          <path
             d="M 0,0 V 0 C 17.318,-10.918 22.553,-34.019 11.636,-51.335 L 7.195,-58.379 C -3.722,-75.697 -26.822,-80.932 -44.14,-70.013 h -10e-4 c -17.317,10.917 -22.552,34.017 -11.634,51.335 l 4.44,7.043 C -40.418,5.682 -17.316,10.917 0,0"
             style="fill:#724d2b;fill-opacity:1;fill-rule:evenodd;stroke:none"
             id="path2851" />
        </g>
        <g
           id="g2853"
           transform="translate(285.146,494.7925)">
          <path
             d="m 0,0 v 0 c 8.435,-5.319 10.985,-16.573 5.667,-25.01 l -2.164,-3.43 c -5.319,-8.439 -16.573,-10.989 -25.008,-5.669 -8.439,5.319 -10.989,16.573 -5.67,25.008 l 2.163,3.432 C -19.693,2.768 -8.439,5.319 0,0"
             style="fill:#b98b59;fill-opacity:1;fill-rule:evenodd;stroke:none"
             id="path2855" />
        </g>
        <g
           id="g2857"
           transform="translate(491.5,445.8843)">
          <path
             d="m 0,0 v 0 c 7.167,-18.209 -1.868,-38.972 -20.078,-46.137 l -160.518,-63.167 c -18.21,-7.167 -38.971,1.867 -46.137,20.078 -7.165,18.21 1.868,38.971 20.078,46.138 L -46.137,20.079 C -27.927,27.246 -7.165,18.21 0,0"
             style="fill:#724d2b;fill-opacity:1;fill-rule:evenodd;stroke:none"
             id="path2859" />
        </g>
        <g
           id="g2861"
           transform="translate(483.7617,430.4009)">
          <path
             d="m 0,0 v 0 c 3.651,-9.28 -0.954,-19.86 -10.234,-23.515 l -3.776,-1.484 c -9.281,-3.652 -19.861,0.953 -23.514,10.234 -3.651,9.281 0.954,19.862 10.234,23.515 l 3.775,1.484 C -14.235,13.888 -3.653,9.283 0,0"
             style="fill:#b98b59;fill-opacity:1;fill-rule:evenodd;stroke:none"
             id="path2863" />
        </g>
        <g
           id="g2865"
           transform="translate(510.8457,368.3262)">
          <path
             d="m 0,0 v -0.002 c 3.272,-8.311 -0.852,-17.787 -9.164,-21.057 l -3.381,-1.331 c -8.31,-3.271 -17.787,0.853 -21.058,9.166 -3.271,8.311 0.853,17.787 9.164,21.058 l 3.382,1.331 C -12.745,12.435 -3.27,8.311 0,0"
             style="fill:#724d2b;fill-opacity:1;fill-rule:evenodd;stroke:none"
             id="path2867" />
        </g>
        <g
           id="g2869"
           transform="translate(493.5625,316.3408)">
          <path
             d="m 0,0 v 0 c 3.272,-8.313 -0.853,-17.788 -9.165,-21.06 l -3.381,-1.33 c -8.311,-3.271 -17.788,0.853 -21.058,9.164 v 0.001 c -3.272,8.312 0.852,17.789 9.164,21.059 l 3.381,1.33 C -12.747,12.436 -3.27,8.311 0,0"
             style="fill:#b98b59;fill-opacity:1;fill-rule:evenodd;stroke:none"
             id="path2871" />
        </g>
        <g
           id="g2873"
           transform="translate(388.4414,217.9189)">
          <path
             d="M 0,0 20.853,124.402 208.542,93.154 V -34.72 Z"
             style="fill:#f28f62;fill-opacity:1;fill-rule:evenodd;stroke:none"
             id="path2875" />
        </g>
        <g
           id="g2877"
           transform="translate(596.9834,183.1875)">
          <path
             d="m 0,0 -184.32,30.671 6.961,41.532 L 0,42.69 Z"
             style="fill:#e36f40;fill-opacity:1;fill-rule:evenodd;stroke:none"
             id="path2879" />
        </g>
        <g
           id="g2881"
           transform="translate(305.541,468.02)">
          <path
             d="M 0,0 V 0 C 12.536,12.307 32.86,12.119 45.167,-0.417 L 153.65,-110.914 c 12.307,-12.536 12.12,-32.862 -0.416,-45.167 -12.535,-12.307 -32.86,-12.121 -45.167,0.416 L -0.415,-45.168 C -12.723,-32.632 -12.535,-12.307 0,0"
             style="fill:#f28f62;fill-opacity:1;fill-rule:evenodd;stroke:none"
             id="path2883" />
        </g>
        <g
           id="g2885"
           transform="translate(226.7671,454.0137)">
          <path
             d="m 0,0 v 0 c 12.537,12.307 32.861,12.122 45.168,-0.417 l 108.483,-110.498 c 12.306,-12.535 12.118,-32.859 -0.416,-45.167 -12.537,-12.307 -32.861,-12.118 -45.168,0.416 L -0.416,-45.167 C -12.723,-32.631 -12.535,-12.307 0,0"
             style="fill:#e36f40;fill-opacity:1;fill-rule:evenodd;stroke:none"
             id="path2887" />
        </g>
        <g
           id="g2889"
           transform="translate(258.3125,462.0762)">
          <path
             d="m 0,0 v 0 c 12.535,12.307 32.859,12.12 45.168,-0.416 l 108.481,-110.499 c 12.307,-12.534 12.121,-32.86 -0.416,-45.167 -12.535,-12.307 -32.859,-12.118 -45.168,0.416 L -0.416,-45.167 C -12.723,-32.632 -12.535,-12.306 0,0"
             style="fill:#e36f40;fill-opacity:1;fill-rule:evenodd;stroke:none"
             id="path2891" />
        </g>
        <g
           id="g2893"
           transform="translate(241.4531,450.8525)">
          <path
             d="m 0,0 v 0 c 6.389,6.272 16.747,6.176 23.019,-0.212 l 2.551,-2.599 c 6.273,-6.388 6.178,-16.748 -0.212,-23.019 H 25.357 C 18.968,-32.102 8.61,-32.006 2.338,-25.618 l -2.551,2.6 C -6.484,-16.63 -6.389,-6.272 0,0"
             style="fill:#f28f62;fill-opacity:1;fill-rule:evenodd;stroke:none"
             id="path2895" />
        </g>
        <g
           id="g2897"
           transform="translate(332.6201,342.0093)">
          <path
             d="m 0,0 8.571,8.415 c 34.507,33.876 90.456,33.361 124.333,-1.144 33.877,-34.508 33.361,-90.457 -1.144,-124.333 l -8.574,-8.416 C 88.681,-159.355 32.732,-158.84 -1.145,-124.333 -35.022,-89.826 -34.506,-33.878 0,0"
             style="fill:#f28f62;fill-opacity:1;fill-rule:evenodd;stroke:none"
             id="path2899" />
        </g>
        <g
           id="g2901"
           transform="translate(321.2993,223.4951)">
          <path
             d="m 0,0 4.701,28.906 c 4.505,27.699 30.854,46.675 58.552,42.171 l 4.425,-0.721 c 27.7,-4.505 46.677,-30.853 42.171,-58.552 -4.505,-27.7 -30.854,-46.676 -58.553,-42.171 l -33.331,5.422 C 6.163,-23.025 -1.919,-11.8 0,0"
             style="fill:#f28f62;fill-opacity:1;fill-rule:evenodd;stroke:none"
             id="path2903" />
        </g>
        <g
           id="g2905"
           transform="translate(260.0815,227.4219)">
          <path
             d="m 0,0 2.157,13.254 c 2.58,15.858 17.666,26.723 33.524,24.143 L 106.575,25.869 C 122.432,23.288 133.297,8.202 130.717,-7.657 128.139,-23.517 113.053,-34.38 97.194,-31.802 L 13.047,-18.115 C 4.478,-16.722 -1.393,-8.57 0,0"
             style="fill:#f28f62;fill-opacity:1;fill-rule:evenodd;stroke:none"
             id="path2907" />
        </g>
        <g
           id="g2909"
           transform="translate(238.1372,248.8506)">
          <path
             d="m 0,0 v 0 c 2.952,18.137 20.204,30.563 38.342,27.613 l 7.377,-1.199 C 63.858,23.464 76.285,6.209 73.333,-11.929 V -11.93 C 70.384,-30.067 53.13,-42.493 34.991,-39.544 l -7.377,1.2 C 9.476,-35.394 -2.95,-18.14 0,0"
             style="fill:#f28f62;fill-opacity:1;fill-rule:evenodd;stroke:none"
             id="path2911" />
        </g>
        <g
           id="g2913"
           transform="translate(250.3628,231.8721)">
          <path
             d="m 0,0 v 0 c 1.436,8.837 9.843,14.891 18.681,13.454 l 3.593,-0.585 c 8.838,-1.437 14.891,-9.843 13.454,-18.68 v -0.001 c -1.436,-8.836 -9.843,-14.891 -18.681,-13.453 l -3.593,0.584 C 4.617,-17.243 -1.437,-8.838 0,0"
             style="fill:#faba9c;fill-opacity:1;fill-rule:evenodd;stroke:none"
             id="path2915" />
        </g>
        <g
           id="g2917"
           transform="translate(218.4238,419.5483)">
          <path
             d="m 0,0 v 0 c 12.537,12.307 32.861,12.119 45.167,-0.416 l 108.484,-110.498 c 12.306,-12.536 12.119,-32.861 -0.417,-45.167 -12.534,-12.307 -32.86,-12.121 -45.167,0.416 L -0.415,-45.167 C -12.723,-32.632 -12.535,-12.306 0,0"
             style="fill:#f28f62;fill-opacity:1;fill-rule:evenodd;stroke:none"
             id="path2919" />
        </g>
        <g
           id="g2921"
           transform="translate(233.9321,418.5801)">
          <path
             d="M 0,0 H 0.002 C 6.391,6.273 16.749,6.178 23.02,-0.211 l 2.551,-2.599 c 6.274,-6.389 6.178,-16.747 -0.211,-23.02 -6.388,-6.273 -16.748,-6.178 -23.02,0.211 l -2.552,2.599 C -6.483,-16.631 -6.387,-6.273 0,0"
             style="fill:#faba9c;fill-opacity:1;fill-rule:evenodd;stroke:none"
             id="path2923" />
        </g>
        <g
           id="g2925"
           transform="translate(275.7329,462.7295)">
          <path
             d="m 0,0 v 0 c 5.723,5.617 15,5.53 20.617,-0.19 l 2.285,-2.328 c 5.617,-5.721 5.532,-14.998 -0.191,-20.615 v -0.001 C 16.99,-28.751 7.713,-28.666 2.096,-22.943 l -2.285,2.327 C -5.808,-14.895 -5.721,-5.618 0,0"
             style="fill:#f28f62;fill-opacity:1;fill-rule:evenodd;stroke:none"
             id="path2927" />
        </g>
        <g
           id="g2929"
           transform="translate(324.7539,466.6729)">
          <path
             d="M 0,0 V 0 C 5.721,5.617 14.998,5.533 20.616,-0.189 L 22.9,-2.515 c 5.618,-5.724 5.532,-15 -0.189,-20.618 -5.723,-5.617 -15,-5.532 -20.617,0.191 l -2.285,2.327 C -5.808,-14.894 -5.723,-5.617 0,0"
             style="fill:#faba9c;fill-opacity:1;fill-rule:evenodd;stroke:none"
             id="path2931" />
        </g>
      </g>
    </g>
  </g>
</svg>
