<?xml version="1.0" encoding="UTF-8" standalone="no"?>
<!-- Created with Inkscape (http://www.inkscape.org/) -->

<svg
   version="1.1"
   id="svg1"
   width="880"
   height="880"
   viewBox="0 0 880 880"
   sodipodi:docname="floppy-disks.svg"
   inkscape:version="1.3.2 (091e20e, 2023-11-25, custom)"
   xmlns:inkscape="http://www.inkscape.org/namespaces/inkscape"
   xmlns:sodipodi="http://sodipodi.sourceforge.net/DTD/sodipodi-0.dtd"
   xmlns="http://www.w3.org/2000/svg"
   xmlns:svg="http://www.w3.org/2000/svg">
  <defs
     id="defs1">
    <clipPath
       clipPathUnits="userSpaceOnUse"
       id="clipPath6">
      <path
         d="M 0,660 H 660 V 0 H 0 Z"
         transform="translate(-442.57031,-358.63571)"
         id="path6" />
    </clipPath>
    <clipPath
       clipPathUnits="userSpaceOnUse"
       id="clipPath8">
      <path
         d="M 0,660 H 660 V 0 H 0 Z"
         transform="translate(-164.75541,-353.40771)"
         id="path8" />
    </clipPath>
    <clipPath
       clipPathUnits="userSpaceOnUse"
       id="clipPath10">
      <path
         d="M 0,660 H 660 V 0 H 0 Z"
         transform="translate(-79.123502,-432.05421)"
         id="path10" />
    </clipPath>
    <clipPath
       clipPathUnits="userSpaceOnUse"
       id="clipPath12">
      <path
         d="M 0,660 H 660 V 0 H 0 Z"
         transform="translate(-201.67431,-464.76321)"
         id="path12" />
    </clipPath>
    <clipPath
       clipPathUnits="userSpaceOnUse"
       id="clipPath14">
      <path
         d="M 0,660 H 660 V 0 H 0 Z"
         transform="translate(-450.88771,-409.73391)"
         id="path14" />
    </clipPath>
    <clipPath
       clipPathUnits="userSpaceOnUse"
       id="clipPath16">
      <path
         d="M 0,660 H 660 V 0 H 0 Z"
         transform="translate(-450.88771,-419.76071)"
         id="path16" />
    </clipPath>
    <clipPath
       clipPathUnits="userSpaceOnUse"
       id="clipPath18">
      <path
         d="M 0,660 H 660 V 0 H 0 Z"
         transform="translate(-427.80861,-215.55081)"
         id="path18" />
    </clipPath>
    <clipPath
       clipPathUnits="userSpaceOnUse"
       id="clipPath20">
      <path
         d="M 0,660 H 660 V 0 H 0 Z"
         transform="translate(-340.26761,-348.67191)"
         id="path20" />
    </clipPath>
    <clipPath
       clipPathUnits="userSpaceOnUse"
       id="clipPath22">
      <path
         d="M 0,660 H 660 V 0 H 0 Z"
         transform="translate(-466.03221,-412.11961)"
         id="path22" />
    </clipPath>
    <clipPath
       clipPathUnits="userSpaceOnUse"
       id="clipPath24">
      <path
         d="M 0,660 H 660 V 0 H 0 Z"
         transform="translate(-562.51372,-361.88871)"
         id="path24" />
    </clipPath>
    <clipPath
       clipPathUnits="userSpaceOnUse"
       id="clipPath26">
      <path
         d="M 0,660 H 660 V 0 H 0 Z"
         transform="translate(-13.3135,-273.58011)"
         id="path26" />
    </clipPath>
    <clipPath
       clipPathUnits="userSpaceOnUse"
       id="clipPath28">
      <path
         d="M 0,660 H 660 V 0 H 0 Z"
         transform="translate(-13.3135,-282.29691)"
         id="path28" />
    </clipPath>
    <clipPath
       clipPathUnits="userSpaceOnUse"
       id="clipPath30">
      <path
         d="M 0,660 H 660 V 0 H 0 Z"
         transform="translate(-418.08791,-270.65431)"
         id="path30" />
    </clipPath>
    <clipPath
       clipPathUnits="userSpaceOnUse"
       id="clipPath32">
      <path
         d="M 0,660 H 660 V 0 H 0 Z"
         transform="translate(-154.22271,-226.4902)"
         id="path32" />
    </clipPath>
    <clipPath
       clipPathUnits="userSpaceOnUse"
       id="clipPath34">
      <path
         d="M 0,660 H 660 V 0 H 0 Z"
         transform="translate(-28.459501,-289.94041)"
         id="path34" />
    </clipPath>
    <clipPath
       clipPathUnits="userSpaceOnUse"
       id="clipPath36">
      <path
         d="M 0,660 H 660 V 0 H 0 Z"
         transform="translate(-128.02251,-338.61471)"
         id="path36" />
    </clipPath>
  </defs>
  <sodipodi:namedview
     id="namedview1"
     pagecolor="#ffffff"
     bordercolor="#000000"
     borderopacity="0.25"
     inkscape:showpageshadow="2"
     inkscape:pageopacity="0.0"
     inkscape:pagecheckerboard="0"
     inkscape:deskcolor="#d1d1d1"
     inkscape:zoom="0.69318182"
     inkscape:cx="439.27869"
     inkscape:cy="440"
     inkscape:window-width="1440"
     inkscape:window-height="830"
     inkscape:window-x="-6"
     inkscape:window-y="-6"
     inkscape:window-maximized="1"
     inkscape:current-layer="g1">
    <inkscape:page
       x="0"
       y="0"
       inkscape:label="1"
       id="page1"
       width="880"
       height="880"
       margin="220.87067 17.379999 219.52133 17.751333"
       bleed="0" />
  </sodipodi:namedview>
  <g
     id="g1"
     inkscape:groupmode="layer"
     inkscape:label="1">
    <g
       id="group-MC0">
      <path
         id="path2"
         d="M 0,0 184.145,58.186 84.695,89.021 Z"
         style="fill:#d7c9c4;fill-opacity:1;fill-rule:evenodd;stroke:none"
         transform="matrix(1.3333333,0,0,-1.3333333,302.98573,659.12893)" />
      <path
         id="path3"
         d="m 0,0 248.758,63.208 24.801,-7.178 130.548,-119.899 -0.369,-4.117 -257.707,-71.419 -7.086,2.052 L 0,-9.747 Z"
         style="fill:#ec6819;fill-opacity:1;fill-rule:evenodd;stroke:none"
         transform="matrix(1.3333333,0,0,-1.3333333,78.390667,316.79227)" />
      <path
         id="path4"
         d="m 0,0 248.387,68.836 24.801,-7.177 130.548,-119.899 -0.369,-4.115 -257.707,-71.42 -7.085,2.047 -138.946,127.61 z"
         style="fill:#f68413;fill-opacity:1;fill-rule:evenodd;stroke:none"
         transform="matrix(1.3333333,0,0,-1.3333333,78.885467,311.30213)" />
      <path
         id="path5"
         d="M 0,0 -217.786,-60.357 -290.158,6.11 c -3.715,3.412 -1.221,7.737 5.543,9.611 l 193.19,53.541 c 6.763,1.876 15.337,0.617 19.054,-2.796 z"
         style="fill:#efe4e1;fill-opacity:1;fill-rule:evenodd;stroke:none"
         transform="matrix(1.3333333,0,0,-1.3333333,590.09373,401.81907)"
         clip-path="url(#clipPath6)" />
      <path
         id="path7"
         d="m 0,0 -12.343,11.338 c -3.716,3.412 -1.221,7.737 5.543,9.611 L 186.39,74.49 c 6.763,1.876 15.337,0.617 19.054,-2.796 l 12.344,-11.337 z"
         style="fill:#d64520;fill-opacity:1;fill-rule:evenodd;stroke:none"
         transform="matrix(1.3333333,0,0,-1.3333333,219.67387,408.78973)"
         clip-path="url(#clipPath8)" />
      <path
         id="path9"
         d="m 0,0 178.814,49.555 42.605,-39.13 c 2.654,-2.438 0.873,-5.529 -3.96,-6.868 L 56.221,-41.128 c -4.832,-1.34 -10.959,-0.44 -13.614,1.998 z"
         style="fill:#ec6819;fill-opacity:1;fill-rule:evenodd;stroke:none"
         transform="matrix(1.3333333,0,0,-1.3333333,105.498,303.92773)"
         clip-path="url(#clipPath10)" />
      <path
         id="path11"
         d="m 0,0 c -1.892,-0.524 -2.589,-1.734 -1.551,-2.688 l 39.039,-35.854 c 1.039,-0.954 3.436,-1.306 5.327,-0.781 l 27.893,7.73 c 1.891,0.524 2.59,1.733 1.55,2.688 L 33.219,6.947 C 32.179,7.902 29.782,8.253 27.892,7.73 Z M -88.276,-21.705 53.093,17.474 95.699,-21.657 c 2.654,-2.437 0.873,-5.529 -3.961,-6.867 L -32.055,-62.832 c -4.834,-1.341 -10.96,-0.441 -13.616,1.997 z"
         style="fill:#efe4e1;fill-opacity:1;fill-rule:evenodd;stroke:none"
         transform="matrix(1.3333333,0,0,-1.3333333,268.89907,260.31573)"
         clip-path="url(#clipPath12)" />
      <path
         id="path13"
         d="m 0,0 196.077,-88.896 v -10.025 l -3.38,-15.711 -191.733,-96.734 -8.898,-0.484 -205.993,103.923 v 10.028 L -8.898,-0.487 Z"
         style="fill:#2f2825;fill-opacity:1;fill-rule:evenodd;stroke:none"
         transform="matrix(1.3333333,0,0,-1.3333333,601.1836,333.68813)"
         clip-path="url(#clipPath14)" />
      <path
         id="path15"
         d="m 0,0 196.077,-98.923 -3.38,-15.711 -191.733,-96.731 -8.898,-0.487 -205.992,103.926 0.965,4.488 204.063,102.951 z"
         style="fill:#463d3b;fill-opacity:1;fill-rule:evenodd;stroke:none"
         transform="matrix(1.3333333,0,0,-1.3333333,601.1836,320.31907)"
         clip-path="url(#clipPath16)" />
      <path
         id="path17"
         d="m 0,0 -175.702,88.643 106.289,53.623 c 5.457,2.752 14.387,2.752 19.844,0 l 155.86,-78.633 c 5.457,-2.754 5.457,-7.256 0,-10.01 z"
         style="fill:#d7c9c4;fill-opacity:1;fill-rule:evenodd;stroke:none"
         transform="matrix(1.3333333,0,0,-1.3333333,570.41147,592.59893)"
         clip-path="url(#clipPath18)" />
      <path
         id="path19"
         d="m 0,0 18.128,9.145 c 5.457,2.752 14.387,2.752 19.844,0 l 155.86,-78.633 c 5.457,-2.754 5.457,-7.256 0,-10.01 l -18.129,-9.148 z"
         style="fill:#d64520;fill-opacity:1;fill-rule:evenodd;stroke:none"
         transform="matrix(1.3333333,0,0,-1.3333333,453.69013,415.10413)"
         clip-path="url(#clipPath20)" />
      <path
         id="path21"
         d="M 0,0 144.26,-72.781 81.686,-104.35 c -3.899,-1.967 -10.28,-1.967 -14.179,0 l -130.08,65.627 c -3.901,1.967 -3.901,5.185 0,7.155 z"
         style="fill:#2f2825;fill-opacity:1;fill-rule:evenodd;stroke:none"
         transform="matrix(1.3333333,0,0,-1.3333333,621.37627,330.5072)"
         clip-path="url(#clipPath22)" />
      <path
         id="path23"
         d="m 0,0 c -1.526,0.771 -4.023,0.771 -5.548,0 l -57.335,-28.924 c -1.525,-0.771 -1.525,-2.029 0,-2.8 l 22.503,-11.352 c 1.527,-0.772 4.022,-0.772 5.55,0 l 57.333,28.923 c 1.527,0.772 1.527,2.029 0,2.8 z m -65.965,36.701 114.054,-57.54 -62.574,-31.569 c -3.902,-1.967 -10.281,-1.967 -14.182,0 l -99.872,50.386 c -3.898,1.967 -3.9,5.187 0,7.154 z"
         style="fill:#d7c9c4;fill-opacity:1;fill-rule:evenodd;stroke:none"
         transform="matrix(1.3333333,0,0,-1.3333333,750.01827,397.48173)"
         clip-path="url(#clipPath24)" />
      <path
         id="path25"
         d="m 0,0 v 8.717 l 196.077,90.202 31.144,-1.702 192.698,-92.5 V -4.002 L 213.926,-107.927 205.028,-107.44 0.965,-4.488 Z"
         style="fill:#2c56ab;fill-opacity:1;fill-rule:evenodd;stroke:none"
         transform="matrix(1.3333333,0,0,-1.3333333,17.751333,515.22653)"
         clip-path="url(#clipPath26)" />
      <path
         id="path27"
         d="M 0,0 196.077,98.922 227.221,97.218 418.954,0.486 419.919,-4 213.926,-107.926 205.029,-107.439 0.965,-4.487 Z"
         style="fill:#4677c5;fill-opacity:1;fill-rule:evenodd;stroke:none"
         transform="matrix(1.3333333,0,0,-1.3333333,17.751333,503.60413)"
         clip-path="url(#clipPath28)" />
      <path
         id="path29"
         d="m 0,0 -175.704,-88.643 -106.289,53.623 c -5.457,2.754 -5.457,7.259 0,10.012 l 155.859,78.632 c 5.459,2.755 14.387,2.755 19.846,0 z"
         style="fill:#cde2f6;fill-opacity:1;fill-rule:evenodd;stroke:none"
         transform="matrix(1.3333333,0,0,-1.3333333,557.45053,519.1276)"
         clip-path="url(#clipPath30)" />
      <path
         id="path31"
         d="m 0,0 -18.128,9.145 c -5.457,2.753 -5.457,7.258 0,10.011 l 155.859,78.632 c 5.459,2.755 14.387,2.755 19.846,0 l 18.128,-9.145 z"
         style="fill:#f14c29;fill-opacity:1;fill-rule:evenodd;stroke:none"
         transform="matrix(1.3333333,0,0,-1.3333333,205.63027,578.01307)"
         clip-path="url(#clipPath32)" />
      <path
         id="path33"
         d="M 0,0 144.26,72.777 206.834,41.21 c 3.901,-1.966 3.901,-5.188 0,-7.154 L 76.752,-31.571 c -3.898,-1.967 -10.278,-1.967 -14.179,0 z"
         style="fill:#2c56ab;fill-opacity:1;fill-rule:evenodd;stroke:none"
         transform="matrix(1.3333333,0,0,-1.3333333,37.946,493.4128)"
         clip-path="url(#clipPath34)" />
      <path
         id="path35"
         d="m 0,0 c -1.525,-0.771 -1.525,-2.031 0,-2.8 l 57.335,-28.926 c 1.525,-0.77 4.022,-0.77 5.549,0 l 22.501,11.354 c 1.526,0.77 1.526,2.028 0,2.798 L 28.052,11.351 c -1.527,0.771 -4.024,0.771 -5.549,0 z M -72.746,-33.281 41.306,24.26 103.88,-7.309 c 3.899,-1.969 3.899,-5.187 0,-7.153 L 4.007,-64.849 c -3.899,-1.967 -10.279,-1.967 -14.179,0 z"
         style="fill:#cde2f6;fill-opacity:1;fill-rule:evenodd;stroke:none"
         transform="matrix(1.3333333,0,0,-1.3333333,170.69667,428.51373)"
         clip-path="url(#clipPath36)" />
    </g>
  </g>
</svg>
